# xmcd
#
# Track frame offsets:
#  150
#  18494
#  37070
#  54823
#  71903
#  87441
#  101168
#  119141
#  131187
#  146238
#  159352
#  174867
#  192118
#  204347
#  225330
#  241189
#  254531
#
# Disc length: 3580 seconds
#
# Revision: 0
# Processed by: cddbd v1.5.2PL0 Copyright (c) Steve Scherf et al.
# Submitted via: AltoMP3_Maker 3.0
#
DISCID=f10dfa11
DTITLE=McAlister Kemp - The Best Of MK 2008 - 2014
DYEAR=1900
DGENRE=
TTITLE0=All Kinds of Tough
TTITLE1=It Don't Buy You Love
TTITLE2=Blue Collar Night
TTITLE3=Hell Yeah
TTITLE4=Hard Work
TTITLE5=Country Proud
TTITLE6=Home
TTITLE7=Cold Beer Hot Women
TTITLE8=Harder to Tame
TTITLE9=Tats
TTITLE10=Fight Me
TTITLE11=Fading Ink and Battle Scars
TTITLE12=Guys Like Us
TTITLE13=100 Years The Anzac
TTITLE14=There's No Place Like Home
TTITLE15=What a Women Can Do (Live at Belmont)
TTITLE16=Till The Wheels Fall Off (Live at Belmont)
EXTD=
EXTT0=
EXTT1=
EXTT2=
EXTT3=
EXTT4=
EXTT5=
EXTT6=
EXTT7=
EXTT8=
EXTT9=
EXTT10=
EXTT11=
EXTT12=
EXTT13=
EXTT14=
EXTT15=
EXTT16=
PLAYORDER=
